<svg version="1.1" id="Layer_1" xmlns="http://www.w3.org/2000/svg" xmlns:xlink="http://www.w3.org/1999/xlink" x="0px" y="0px"
	 width="100%" viewBox="0 0 283 283" enable-background="new 0 0 283 283" xml:space="preserve">
<path fill="#1A1A1A" opacity="1.000000" stroke="none" 
	d="
M165.000000,284.000000 
	C150.312439,284.000000 135.624878,284.000000 120.349731,283.646606 
	C118.587425,282.844513 117.448631,282.212463 116.232666,281.974121 
	C90.916481,277.011169 68.172440,266.494354 48.941898,249.294601 
	C24.542051,227.471405 8.791827,200.497681 2.940664,168.028915 
	C2.744092,166.938126 1.666780,166.006058 1.000001,165.000000 
	C1.000000,150.312439 1.000000,135.624878 1.353391,120.349785 
	C2.143009,118.753143 2.793304,117.782806 2.984128,116.729248 
	C7.628074,91.089279 18.638979,68.391609 35.750111,48.928829 
	C57.406826,24.295744 84.571983,8.886342 116.971977,2.941200 
	C118.063309,2.740951 118.994278,1.666803 120.000000,1.000000 
	C134.687561,1.000000 149.375122,1.000000 164.649323,1.353731 
	C166.411026,2.155844 167.550125,2.792181 168.766479,3.024884 
	C193.606201,7.777076 215.981033,18.043274 234.950302,34.673378 
	C259.960175,56.599186 276.001099,84.004494 282.058929,116.970345 
	C282.259583,118.062256 283.333252,118.993736 284.000000,120.000000 
	C284.000000,134.687561 284.000000,149.375122 283.646606,164.650208 
	C282.868164,166.080704 282.206024,166.882736 282.052399,167.772568 
	C277.493530,194.177536 265.979462,217.282974 248.222961,237.141800 
	C226.697235,261.216125 199.836411,276.124695 168.030380,282.058319 
	C166.937546,282.262177 166.006470,283.333160 165.000000,284.000000 
M106.910988,40.015804 
	C106.910988,40.015804 106.814575,40.075424 106.592384,39.808578 
	C106.516403,39.712093 106.440430,39.615608 106.364449,39.519127 
	C106.394279,39.503609 106.424103,39.488087 106.453918,39.472557 
	C106.257576,39.630569 106.061234,39.788582 105.109650,39.842361 
	C105.100288,41.892097 105.090927,43.941833 104.377937,45.981052 
	C103.213707,46.620991 102.049484,47.260933 100.260918,47.980026 
	C98.836769,47.969013 97.412628,47.958000 95.441307,48.173500 
	C94.956902,48.770058 94.472504,49.366619 93.898499,50.681942 
	C93.165947,50.987400 92.095390,51.769955 91.751740,51.526485 
	C86.888344,48.080853 85.378334,51.304684 84.345497,54.046131 
	C85.856972,56.198036 86.908081,57.694515 88.422852,59.851112 
	C72.705238,59.402439 67.342133,72.134850 67.985603,83.177147 
	C69.016403,81.597168 69.980103,80.120041 71.411644,77.925804 
	C74.777618,85.242950 78.194878,91.315353 78.124619,98.812050 
	C78.095764,101.890984 79.387047,105.334175 81.055420,107.999817 
	C84.022736,112.740868 87.581055,117.145569 91.199493,121.431503 
	C93.026604,123.595673 95.386436,125.399475 97.754593,126.996765 
	C101.403442,129.457855 105.266502,131.601318 109.537956,134.450470 
	C111.319336,135.966019 116.184830,134.224228 114.716324,139.138931 
	C112.966087,144.996552 114.009392,149.947830 119.254303,152.732803 
	C123.194160,154.824799 123.112854,157.510712 122.905716,160.923157 
	C122.779358,163.004791 122.512985,165.339035 123.301865,167.120361 
	C123.801460,168.248505 126.779243,169.580750 127.533363,169.094955 
	C135.849915,163.737427 145.925385,160.863266 151.085190,151.009140 
	C153.658371,146.094955 153.881348,145.222244 148.118362,144.008194 
	C145.450821,143.446243 142.785019,142.529831 140.341660,141.322418 
	C135.349380,138.855408 130.640457,135.776779 125.545357,133.573090 
	C123.216354,132.565781 120.251862,132.941391 117.570442,132.860458 
	C115.062843,132.784775 112.548424,132.934769 109.976913,132.206375 
	C108.231232,129.073593 106.485550,125.940826 104.574982,122.512154 
	C101.939590,125.138710 98.979012,126.504616 97.815506,121.681717 
	C97.335320,119.691246 98.419235,115.481224 99.290298,115.339249 
	C102.374222,114.836578 105.717896,115.444771 108.862129,116.109573 
	C109.726402,116.292297 110.238464,118.140846 110.912140,119.225014 
	C111.453125,119.173454 111.994118,119.121895 112.535103,119.070335 
	C109.638756,114.804199 110.889954,111.927864 114.358170,109.423439 
	C115.397179,108.673164 115.368156,106.582787 116.298157,105.515778 
	C118.790009,102.656845 121.282104,99.680626 124.283524,97.430527 
	C125.899574,96.218994 128.561722,96.402847 131.032669,95.899963 
	C128.727158,93.927826 127.397438,92.790382 126.067719,91.652939 
	C127.881363,90.594666 129.695007,89.536400 131.508667,88.478127 
	C131.326126,89.024498 131.143585,89.570877 130.961060,90.117249 
	C132.922974,91.571404 134.884888,93.025558 136.846802,94.479713 
	C137.287323,94.028023 137.727844,93.576340 138.168365,93.124649 
	C134.360489,86.330414 130.552612,79.536179 126.706703,72.674072 
	C125.106987,73.837364 123.941734,74.684715 122.450050,75.769455 
	C121.469246,72.665123 120.726532,70.314369 120.648453,67.818016 
	C124.141701,69.001160 126.581871,68.687218 126.188614,64.061539 
	C126.157036,63.690098 126.808075,63.159912 127.249794,62.865250 
	C130.183533,60.908180 129.274582,59.196121 127.017868,57.448032 
	C126.260315,56.861225 125.377502,56.178139 125.044357,55.342697 
	C122.616135,49.253544 116.921654,45.213558 110.686012,45.274448 
	C110.098038,45.280193 109.507744,45.048466 108.531525,44.847206 
	C114.762444,42.847397 114.762444,42.847397 114.706291,39.774780 
	C116.716309,37.308521 118.726334,34.842258 120.736359,32.375999 
	C120.859192,33.062004 120.982033,33.748009 121.104866,34.434010 
	C123.277382,35.790482 125.492271,38.335476 127.613716,38.259827 
	C132.251465,38.094448 133.975021,40.590179 134.976364,44.132381 
	C136.276245,48.730541 137.201370,53.377781 137.008942,58.276466 
	C136.754364,64.757660 140.877426,70.375458 146.578308,72.146805 
	C146.849167,71.758041 147.277481,71.391792 147.387650,70.946777 
	C148.525009,66.352371 149.100021,61.538052 154.719299,59.712730 
	C156.956024,58.986164 159.087463,57.584042 160.919327,56.069221 
	C162.497543,54.764133 164.238983,53.036709 164.731354,51.183361 
	C165.470566,48.400681 165.181183,45.344742 165.311172,42.762516 
	C164.451691,38.709118 163.610291,34.741070 162.523895,29.617519 
	C158.619247,28.447428 153.315155,25.969141 147.823944,25.442673 
	C141.302261,24.817411 134.619629,25.870928 127.439041,26.121983 
	C126.926079,26.329742 126.413116,26.537504 125.074448,26.729223 
	C118.534500,28.122862 111.618896,28.712427 106.793488,34.903309 
	C108.745842,36.786270 110.401909,38.383484 111.916313,40.633896 
	C110.517601,40.741512 109.118896,40.849129 107.778557,40.486244 
	C107.598763,40.166275 107.328850,40.041958 106.910988,40.015804 
M152.558395,22.808453 
	C160.534531,25.624002 168.940491,27.601505 176.398682,31.426876 
	C192.700607,39.788292 203.879120,52.634918 205.508804,71.655510 
	C206.213959,79.885551 205.828629,88.291695 205.070328,96.537994 
	C204.476166,102.999245 202.545090,109.337547 201.207977,115.730469 
	C200.663513,115.660545 200.119034,115.590630 199.574554,115.520706 
	C203.946579,96.098488 200.514832,77.053345 197.642105,56.862526 
	C191.709747,65.066849 187.441116,73.121643 186.259430,81.955597 
	C184.413010,95.758621 183.485794,109.727585 182.975082,123.655800 
	C182.281387,142.574615 176.906937,158.714111 159.558060,168.832962 
	C156.436203,170.653793 153.317398,172.479813 149.795151,174.538391 
	C170.211380,174.130081 199.669724,156.891647 211.602676,128.287460 
	C224.657410,96.994202 216.613419,61.019955 190.588211,38.184612 
	C167.183472,17.648552 132.855698,13.699752 109.031448,26.041525 
	C123.042183,21.838182 137.206482,19.812342 152.558395,22.808453 
M113.337631,203.710480 
	C112.385223,198.854446 111.432808,193.998398 110.465912,189.068497 
	C107.855446,189.068497 105.604233,189.068497 103.038109,189.068497 
	C105.448456,198.532532 107.771683,207.654510 110.076920,216.705826 
	C113.150276,216.705826 115.907951,216.705826 118.544479,216.705826 
	C120.016457,211.203110 121.403503,206.017914 122.790543,200.832718 
	C123.079483,200.883926 123.368423,200.935135 123.657364,200.986343 
	C124.980049,206.228088 126.302734,211.469849 127.653343,216.822266 
	C130.535034,216.822266 133.155914,216.822266 136.088669,216.822266 
	C138.468887,207.698166 140.847946,198.578445 143.325714,189.080414 
	C140.671494,189.080414 138.422424,189.080414 135.978058,189.080414 
	C134.690765,195.020401 133.422501,200.872620 132.154236,206.724854 
	C131.885132,206.667450 131.616043,206.610062 131.346939,206.552658 
	C129.896484,200.655655 128.446014,194.758667 127.037079,189.030487 
	C124.146812,189.030487 121.865288,189.030487 119.425621,189.030487 
	C117.837158,195.276367 116.296661,201.333649 114.533226,208.267517 
	C114.050018,206.368820 113.807121,205.414352 113.337631,203.710480 
M97.420319,217.016129 
	C98.157539,216.197815 99.519821,215.391220 99.535431,214.559372 
	C99.693642,206.125122 99.631996,197.686737 99.631996,189.068115 
	C97.087929,189.068115 95.024109,189.068115 92.414291,189.068115 
	C92.414291,194.200562 92.414291,199.056412 92.414291,203.912277 
	C88.995308,200.527145 86.247375,197.037231 84.188553,193.179520 
	C81.901352,188.893875 78.798286,187.833923 74.351639,189.310959 
	C74.351639,198.388550 74.351639,207.468140 74.351639,216.763763 
	C76.640747,216.763763 78.693787,216.763763 81.249405,216.763763 
	C81.249405,211.499893 81.249405,206.473984 81.249405,199.925003 
	C84.938675,205.463699 87.959641,209.581711 90.502861,213.976212 
	C91.991127,216.547852 93.832657,217.402863 97.420319,217.016129 
M176.383301,197.615692 
	C176.383301,204.012985 176.383301,210.410294 176.383301,216.817535 
	C179.114975,216.817535 181.065948,216.817535 183.130264,216.817535 
	C183.360474,213.322433 183.577606,210.026047 183.794739,206.729660 
	C184.220123,206.661850 184.645508,206.594055 185.070892,206.526245 
	C186.561234,209.225540 188.128708,211.885666 189.523956,214.633240 
	C191.657028,218.833786 194.972946,216.535889 198.543549,216.835785 
	C196.331284,212.888214 194.496841,209.614807 192.543060,206.128479 
	C197.341354,203.636505 199.752502,199.662842 197.772369,195.008392 
	C196.683655,192.449326 193.356262,189.823212 190.603729,189.224304 
	C186.198105,188.265747 181.431213,188.967636 176.383347,188.967636 
	C176.383347,191.744766 176.383347,194.202286 176.383301,197.615692 
M202.606796,200.364288 
	C202.702652,202.854156 202.615646,205.367432 202.930588,207.829269 
	C203.703491,213.871246 207.895203,217.213379 214.390656,217.192673 
	C220.716522,217.172501 225.532318,213.639191 225.939896,207.864456 
	C226.379990,201.628876 226.039459,195.338211 226.039459,189.108643 
	C223.652847,189.108643 221.567459,189.108643 219.256439,189.108643 
	C219.256439,194.414032 219.192001,199.390823 219.278015,204.365005 
	C219.340454,207.975494 218.339279,210.891647 214.208740,210.782257 
	C210.313065,210.679092 209.580261,207.689178 209.604080,204.391464 
	C209.640823,199.302628 209.613754,194.213333 209.613754,189.136627 
	C206.930374,189.136627 204.874680,189.136627 202.606796,189.136627 
	C202.606796,192.804962 202.606796,196.115738 202.606796,200.364288 
M67.461426,206.960114 
	C65.616119,201.805222 63.975033,196.561035 61.786636,191.556152 
	C61.216125,190.251419 58.961926,189.016846 57.441502,188.967499 
	C55.668644,188.909927 52.735134,189.732361 52.235092,190.959396 
	C48.809811,199.364487 45.890797,207.975876 42.696022,216.833160 
	C45.327133,216.833160 47.454773,216.833160 49.748047,216.833160 
	C50.079826,216.089355 50.403858,215.348160 50.739811,214.612411 
	C51.965836,211.927322 61.270699,210.455246 62.064819,213.032196 
	C63.674007,218.254044 67.157593,217.022415 70.938972,216.788467 
	C69.836830,213.599869 68.812485,210.636368 67.461426,206.960114 
M152.955933,195.338501 
	C150.406113,202.421021 147.856293,209.503525 145.257034,216.723389 
	C152.009949,217.212051 152.009949,217.212051 154.472733,212.063141 
	C158.932068,212.731110 164.994263,209.131134 166.421738,216.691040 
	C168.912262,216.691040 170.968918,216.691040 173.452591,216.691040 
	C170.504639,208.477722 167.530624,200.742508 164.995575,192.866028 
	C163.937073,189.577240 162.285538,188.822693 158.963165,188.626862 
	C154.157898,188.343643 154.499039,192.050247 152.955933,195.338501 
M236.626251,217.010666 
	C240.069595,217.010666 243.512955,217.010666 247.200058,217.010666 
	C247.053192,214.943207 246.951492,213.511353 246.813126,211.563507 
	C243.809998,211.563507 241.080124,211.563507 237.995880,211.563507 
	C237.995880,203.749237 237.995880,196.470581 237.995880,189.131836 
	C235.572418,189.131836 233.528259,189.131836 231.438873,189.131836 
	C231.438873,198.544724 231.438873,207.614426 231.438873,217.010635 
	C233.048462,217.010635 234.358246,217.010635 236.626251,217.010666 
M196.427338,244.926926 
	C196.757675,241.827988 197.088028,238.729050 197.498016,234.882797 
	C199.511414,238.872498 201.151566,242.122574 203.429062,246.635620 
	C205.562927,242.262222 207.053757,239.206726 208.544586,236.151230 
	C208.826859,236.259354 209.109116,236.367477 209.391373,236.475601 
	C209.539902,239.228409 209.688431,241.981232 209.836960,244.734039 
	C211.504013,244.336761 212.556259,243.450211 212.600937,242.515488 
	C212.791443,238.528763 212.794907,234.522720 212.611298,230.535477 
	C212.562515,229.476303 211.605576,228.458923 211.065598,227.422348 
	C210.138641,228.214188 208.857605,228.826752 208.349442,229.830597 
	C206.649521,233.188568 205.225998,236.686478 203.655579,240.223221 
	C199.686295,236.538651 200.658630,229.511551 194.020706,226.633926 
	C194.020706,232.810211 193.947128,237.621475 194.087952,242.426468 
	C194.113556,243.300232 195.015656,244.148300 196.427338,244.926926 
M120.302269,236.101364 
	C119.536407,233.907043 118.905174,231.651031 117.941147,229.547531 
	C117.531944,228.654678 116.452492,227.555603 115.627090,227.512222 
	C114.812553,227.469421 113.480827,228.467896 113.158195,229.309448 
	C111.230728,234.337051 109.529442,239.451385 107.752274,244.536621 
	C107.926796,245.307281 108.101318,246.077942 108.275833,246.848587 
	C113.048683,238.553345 118.066925,241.819168 123.815262,246.070587 
	C122.361069,241.822876 121.503525,239.317978 120.302269,236.101364 
M84.692596,234.536133 
	C86.459335,232.417358 88.226082,230.298569 89.992821,228.179794 
	C89.622017,227.749023 89.251205,227.318268 88.880394,226.887497 
	C86.276131,229.042450 83.671860,231.197418 80.828362,233.550323 
	C80.373405,231.197266 79.998619,229.258850 79.623833,227.320419 
	C79.126465,227.344864 78.629097,227.369324 78.131729,227.393784 
	C76.257675,232.865799 77.393967,238.621918 77.514854,244.264160 
	C77.520287,244.517365 79.051994,244.737885 79.948341,244.995316 
	C80.213066,242.764984 80.433273,240.909668 80.661926,238.983231 
	C84.507141,240.170395 84.876656,246.096268 90.464256,244.628159 
	C88.927834,242.852798 87.488815,241.485077 86.423119,239.870895 
	C85.465302,238.420090 84.917427,236.698654 84.692596,234.536133 
M147.770248,227.528824 
	C145.668411,227.528824 143.566559,227.528824 141.038483,227.528824 
	C141.038483,232.892853 140.949326,237.832520 141.124802,242.762772 
	C141.154602,243.600296 142.320343,244.397385 143.688019,246.138168 
	C143.992950,242.423401 144.170258,240.263504 144.354095,238.023987 
	C148.932556,238.561951 147.431168,246.106644 153.307587,244.663315 
	C152.115067,242.454010 151.033752,240.450729 149.977921,238.494690 
	C154.954712,233.299423 154.479935,230.004105 147.770248,227.528824 
M172.183395,231.084900 
	C172.780807,235.682983 170.883453,240.750275 173.349594,244.996887 
	C173.804077,244.903992 174.258545,244.811096 174.713028,244.718201 
	C174.713028,238.975403 174.713028,233.232620 174.713028,227.489822 
	C174.263290,227.397705 173.813553,227.305588 173.363815,227.213470 
	C172.971024,228.220779 172.578232,229.228104 172.183395,231.084900 
M172.668182,63.673927 
	C170.058655,62.722717 167.449112,61.771507 164.839584,60.820301 
	C164.508362,61.323837 164.177155,61.827377 163.845932,62.330917 
	C165.045425,63.851093 166.033829,66.299225 167.503098,66.633453 
	C169.006897,66.975533 170.981842,65.246315 172.668182,63.673927 
z"/>
<path fill="#000000" opacity="1.000000" stroke="none" 
	d="
M165.468658,284.000000 
	C166.006470,283.333160 166.937546,282.262177 168.030380,282.058319 
	C199.836411,276.124695 226.697235,261.216125 248.222961,237.141800 
	C265.979462,217.282974 277.493530,194.177536 282.052399,167.772568 
	C282.206024,166.882736 282.868164,166.080704 283.646606,165.118866 
	C284.000000,204.593628 284.000000,244.187256 284.000000,284.000000 
	C244.646042,284.000000 205.291687,284.000000 165.468658,284.000000 
z"/>
<path fill="#000000" opacity="1.000000" stroke="none" 
	d="
M284.000000,119.531342 
	C283.333252,118.993736 282.259583,118.062256 282.058929,116.970345 
	C276.001099,84.004494 259.960175,56.599186 234.950302,34.673378 
	C215.981033,18.043274 193.606201,7.777076 168.766479,3.024884 
	C167.550125,2.792181 166.411026,2.155844 165.117981,1.353731 
	C204.593628,1.000000 244.187256,1.000000 284.000000,1.000000 
	C284.000000,40.353958 284.000000,79.708321 284.000000,119.531342 
z"/>
<path fill="#000000" opacity="1.000000" stroke="none" 
	d="
M1.000001,165.468658 
	C1.666780,166.006058 2.744092,166.938126 2.940664,168.028915 
	C8.791827,200.497681 24.542051,227.471405 48.941898,249.294601 
	C68.172440,266.494354 90.916481,277.011169 116.232666,281.974121 
	C117.448631,282.212463 118.587425,282.844513 119.881073,283.646606 
	C80.406372,284.000000 40.812740,284.000000 1.000000,284.000000 
	C1.000000,244.646042 1.000000,205.291687 1.000001,165.468658 
z"/>
<path fill="#000000" opacity="1.000000" stroke="none" 
	d="
M119.531342,1.000000 
	C118.994278,1.666803 118.063309,2.740951 116.971977,2.941200 
	C84.571983,8.886342 57.406826,24.295744 35.750111,48.928829 
	C18.638979,68.391609 7.628074,91.089279 2.984128,116.729248 
	C2.793304,117.782806 2.143009,118.753143 1.353391,119.881126 
	C1.000000,80.406364 1.000000,40.812733 1.000000,1.000000 
	C40.353958,1.000000 79.708321,1.000000 119.531342,1.000000 
z"/>
<path fill="#688B4D" opacity="1.000000" stroke="none" 
	d="
M152.134674,22.709393 
	C137.206482,19.812342 123.042183,21.838182 109.031448,26.041525 
	C132.855698,13.699752 167.183472,17.648552 190.588211,38.184612 
	C216.613419,61.019955 224.657410,96.994202 211.602676,128.287460 
	C199.669724,156.891647 170.211380,174.130081 149.795151,174.538391 
	C153.317398,172.479813 156.436203,170.653793 159.558060,168.832962 
	C176.906937,158.714111 182.281387,142.574615 182.975082,123.655800 
	C183.485794,109.727585 184.413010,95.758621 186.259430,81.955597 
	C187.441116,73.121643 191.709747,65.066849 197.642105,56.862526 
	C200.514832,77.053345 203.946579,96.098488 199.574554,115.520706 
	C200.119034,115.590630 200.663513,115.660545 201.207977,115.730469 
	C202.545090,109.337547 204.476166,102.999245 205.070328,96.537994 
	C205.828629,88.291695 206.213959,79.885551 205.508804,71.655510 
	C203.879120,52.634918 192.700607,39.788292 176.398682,31.426876 
	C168.940491,27.601505 160.534531,25.624002 152.134674,22.709393 
z"/>
<path fill="#FA3030" opacity="1.000000" stroke="none" 
	d="
M109.038696,133.879532 
	C105.266502,131.601318 101.403442,129.457855 97.754593,126.996765 
	C95.386436,125.399475 93.026604,123.595673 91.199493,121.431503 
	C87.581055,117.145569 84.022736,112.740868 81.055420,107.999817 
	C79.387047,105.334175 78.095764,101.890984 78.124619,98.812050 
	C78.194878,91.315353 74.777618,85.242950 71.411644,77.925804 
	C69.980103,80.120041 69.016403,81.597168 67.985603,83.177147 
	C67.342133,72.134850 72.705238,59.402439 88.422852,59.851112 
	C86.908081,57.694515 85.856972,56.198036 84.345497,54.046131 
	C85.378334,51.304684 86.888344,48.080853 91.751740,51.526485 
	C92.095390,51.769955 93.165947,50.987400 94.299454,50.417858 
	C95.175835,53.185337 95.651253,56.216900 96.255699,60.071178 
	C98.271637,57.508183 100.477226,54.704063 102.606865,51.996513 
	C104.104912,54.322578 105.527061,56.530781 107.193367,59.118107 
	C108.094994,57.357037 108.695808,56.183502 109.575760,55.015495 
	C110.227089,55.016315 110.599281,55.011616 111.308289,55.178062 
	C111.256592,58.965492 110.868073,62.581776 110.443428,66.534294 
	C110.136223,66.586105 108.951874,67.192032 108.230789,66.842438 
	C103.046570,64.329002 102.664841,69.580597 100.720810,71.695908 
	C98.453659,74.162796 100.152771,77.133446 102.477211,78.381195 
	C106.276093,80.420441 110.316414,81.849358 111.378990,86.690834 
	C111.681190,86.606552 111.983383,86.522270 112.569778,86.358719 
	C113.206924,80.641068 113.854271,74.831871 114.512558,68.924530 
	C116.373405,68.624855 118.197220,68.331139 120.029358,68.009918 
	C120.037674,67.982414 119.983818,67.963615 119.983818,67.963615 
	C120.726532,70.314369 121.469246,72.665123 122.450050,75.769455 
	C123.941734,74.684715 125.106987,73.837364 126.706703,72.674072 
	C130.552612,79.536179 134.360489,86.330414 138.168365,93.124649 
	C137.727844,93.576340 137.287323,94.028023 136.846802,94.479713 
	C134.884888,93.025558 132.922974,91.571404 130.961060,90.117249 
	C131.143585,89.570877 131.326126,89.024498 131.508667,88.478127 
	C129.695007,89.536400 127.881363,90.594666 126.067719,91.652939 
	C127.397438,92.790382 128.727158,93.927826 131.032669,95.899963 
	C128.561722,96.402847 125.899574,96.218994 124.283524,97.430527 
	C121.282104,99.680626 118.790009,102.656845 116.298157,105.515778 
	C115.368156,106.582787 115.397179,108.673164 114.358170,109.423439 
	C110.889954,111.927864 109.638756,114.804199 112.535103,119.070335 
	C111.994118,119.121895 111.453125,119.173454 110.912140,119.225014 
	C110.238464,118.140846 109.726402,116.292297 108.862129,116.109573 
	C105.717896,115.444771 102.374222,114.836578 99.290298,115.339249 
	C98.419235,115.481224 97.335320,119.691246 97.815506,121.681717 
	C98.979012,126.504616 101.939590,125.138710 104.574982,122.512154 
	C106.485550,125.940826 108.231232,129.073593 109.818192,132.718674 
	C109.418678,133.414749 109.211754,133.630936 109.038696,133.879532 
z"/>
<path fill="#FA3030" opacity="1.000000" stroke="none" 
	d="
M128.006744,26.196957 
	C134.619629,25.870928 141.302261,24.817411 147.823944,25.442673 
	C153.315155,25.969141 158.619247,28.447428 162.523895,29.617519 
	C163.610291,34.741070 164.451691,38.709118 165.311172,42.762516 
	C165.181183,45.344742 165.470566,48.400681 164.731354,51.183361 
	C164.238983,53.036709 162.497543,54.764133 160.919327,56.069221 
	C159.087463,57.584042 156.956024,58.986164 154.719299,59.712730 
	C149.100021,61.538052 148.525009,66.352371 147.387650,70.946777 
	C147.277481,71.391792 146.849167,71.758041 146.578308,72.146805 
	C140.877426,70.375458 136.754364,64.757660 137.008942,58.276466 
	C137.201370,53.377781 136.276245,48.730541 134.976364,44.132381 
	C133.975021,40.590179 132.251465,38.094448 127.613716,38.259827 
	C125.492271,38.335476 123.277382,35.790482 121.104866,34.434010 
	C120.982033,33.748009 120.859192,33.062004 120.736359,32.375999 
	C118.726334,34.842258 116.716309,37.308521 114.049973,39.885395 
	C112.948425,39.990906 112.503204,39.985802 112.057983,39.980698 
	C110.401909,38.383484 108.745842,36.786270 106.793488,34.903309 
	C111.618896,28.712427 118.534500,28.122862 125.590218,27.031319 
	C126.070045,28.554708 126.034111,29.776005 125.757050,30.894239 
	C124.926216,30.799465 124.336510,30.807753 123.746796,30.816040 
	C123.936279,31.207212 124.125771,31.598383 124.315262,31.989552 
	C124.877441,31.660362 125.439621,31.331173 126.331543,30.881344 
	C127.109772,29.239454 127.558258,27.718206 128.006744,26.196957 
z"/>
<path fill="#FB3131" opacity="1.000000" stroke="none" 
	d="
M109.288330,134.165009 
	C109.211754,133.630936 109.418678,133.414749 109.848244,133.108215 
	C112.548424,132.934769 115.062843,132.784775 117.570442,132.860458 
	C120.251862,132.941391 123.216354,132.565781 125.545357,133.573090 
	C130.640457,135.776779 135.349380,138.855408 140.341660,141.322418 
	C142.785019,142.529831 145.450821,143.446243 148.118362,144.008194 
	C153.881348,145.222244 153.658371,146.094955 151.085190,151.009140 
	C145.925385,160.863266 135.849915,163.737427 127.533363,169.094955 
	C126.779243,169.580750 123.801460,168.248505 123.301865,167.120361 
	C122.512985,165.339035 122.779358,163.004791 122.905716,160.923157 
	C123.112854,157.510712 123.194160,154.824799 119.254303,152.732803 
	C114.009392,149.947830 112.966087,144.996552 114.716324,139.138931 
	C116.184830,134.224228 111.319336,135.966019 109.288330,134.165009 
z"/>
<path fill="#D3D3D3" opacity="1.000000" stroke="none" 
	d="
M113.450928,204.085190 
	C113.807121,205.414352 114.050018,206.368820 114.533226,208.267517 
	C116.296661,201.333649 117.837158,195.276367 119.425621,189.030487 
	C121.865288,189.030487 124.146812,189.030487 127.037079,189.030487 
	C128.446014,194.758667 129.896484,200.655655 131.346939,206.552658 
	C131.616043,206.610062 131.885132,206.667450 132.154236,206.724854 
	C133.422501,200.872620 134.690765,195.020401 135.978058,189.080414 
	C138.422424,189.080414 140.671494,189.080414 143.325714,189.080414 
	C140.847946,198.578445 138.468887,207.698166 136.088669,216.822266 
	C133.155914,216.822266 130.535034,216.822266 127.653343,216.822266 
	C126.302734,211.469849 124.980049,206.228088 123.657364,200.986343 
	C123.368423,200.935135 123.079483,200.883926 122.790543,200.832718 
	C121.403503,206.017914 120.016457,211.203110 118.544479,216.705826 
	C115.907951,216.705826 113.150276,216.705826 110.076920,216.705826 
	C107.771683,207.654510 105.448456,198.532532 103.038109,189.068497 
	C105.604233,189.068497 107.855446,189.068497 110.465912,189.068497 
	C111.432808,193.998398 112.385223,198.854446 113.450928,204.085190 
z"/>
<path fill="#D0D0D0" opacity="1.000000" stroke="none" 
	d="
M96.987183,217.018417 
	C93.832657,217.402863 91.991127,216.547852 90.502861,213.976212 
	C87.959641,209.581711 84.938675,205.463699 81.249405,199.925003 
	C81.249405,206.473984 81.249405,211.499893 81.249405,216.763763 
	C78.693787,216.763763 76.640747,216.763763 74.351639,216.763763 
	C74.351639,207.468140 74.351639,198.388550 74.351639,189.310959 
	C78.798286,187.833923 81.901352,188.893875 84.188553,193.179520 
	C86.247375,197.037231 88.995308,200.527145 92.414291,203.912277 
	C92.414291,199.056412 92.414291,194.200562 92.414291,189.068115 
	C95.024109,189.068115 97.087929,189.068115 99.631996,189.068115 
	C99.631996,197.686737 99.693642,206.125122 99.535431,214.559372 
	C99.519821,215.391220 98.157539,216.197815 96.987183,217.018417 
z"/>
<path fill="#CECECE" opacity="1.000000" stroke="none" 
	d="
M176.383331,197.137741 
	C176.383347,194.202286 176.383347,191.744766 176.383347,188.967636 
	C181.431213,188.967636 186.198105,188.265747 190.603729,189.224304 
	C193.356262,189.823212 196.683655,192.449326 197.772369,195.008392 
	C199.752502,199.662842 197.341354,203.636505 192.543060,206.128479 
	C194.496841,209.614807 196.331284,212.888214 198.543549,216.835785 
	C194.972946,216.535889 191.657028,218.833786 189.523956,214.633240 
	C188.128708,211.885666 186.561234,209.225540 185.070892,206.526245 
	C184.645508,206.594055 184.220123,206.661850 183.794739,206.729660 
	C183.577606,210.026047 183.360474,213.322433 183.130264,216.817535 
	C181.065948,216.817535 179.114975,216.817535 176.383301,216.817535 
	C176.383301,210.410294 176.383301,204.012985 176.383331,197.137741 
M190.607971,200.106628 
	C191.442947,194.806992 189.816391,193.697540 183.752838,195.392288 
	C183.752838,197.293091 183.752838,199.174713 183.752838,201.621277 
	C186.129883,201.277237 188.046387,200.999863 190.607971,200.106628 
z"/>
<path fill="#D0D0D0" opacity="1.000000" stroke="none" 
	d="
M202.606796,199.895401 
	C202.606796,196.115738 202.606796,192.804962 202.606796,189.136627 
	C204.874680,189.136627 206.930374,189.136627 209.613754,189.136627 
	C209.613754,194.213333 209.640823,199.302628 209.604080,204.391464 
	C209.580261,207.689178 210.313065,210.679092 214.208740,210.782257 
	C218.339279,210.891647 219.340454,207.975494 219.278015,204.365005 
	C219.192001,199.390823 219.256439,194.414032 219.256439,189.108643 
	C221.567459,189.108643 223.652847,189.108643 226.039459,189.108643 
	C226.039459,195.338211 226.379990,201.628876 225.939896,207.864456 
	C225.532318,213.639191 220.716522,217.172501 214.390656,217.192673 
	C207.895203,217.213379 203.703491,213.871246 202.930588,207.829269 
	C202.615646,205.367432 202.702652,202.854156 202.606796,199.895401 
z"/>
<path fill="#D4D4D4" opacity="1.000000" stroke="none" 
	d="
M67.624786,207.316483 
	C68.812485,210.636368 69.836830,213.599869 70.938972,216.788467 
	C67.157593,217.022415 63.674007,218.254044 62.064819,213.032196 
	C61.270699,210.455246 51.965836,211.927322 50.739811,214.612411 
	C50.403858,215.348160 50.079826,216.089355 49.748047,216.833160 
	C47.454773,216.833160 45.327133,216.833160 42.696022,216.833160 
	C45.890797,207.975876 48.809811,199.364487 52.235092,190.959396 
	C52.735134,189.732361 55.668644,188.909927 57.441502,188.967499 
	C58.961926,189.016846 61.216125,190.251419 61.786636,191.556152 
	C63.975033,196.561035 65.616119,201.805222 67.624786,207.316483 
M58.144623,206.866516 
	C58.709591,206.318405 59.848808,205.609543 59.747578,205.247925 
	C59.017715,202.640778 58.036602,200.103943 56.716785,196.357193 
	C55.420441,200.491531 54.526161,203.343582 53.529182,206.523178 
	C55.116596,206.670944 56.215359,206.773239 58.144623,206.866516 
z"/>
<path fill="#D3D3D3" opacity="1.000000" stroke="none" 
	d="
M153.058899,194.955566 
	C154.499039,192.050247 154.157898,188.343643 158.963165,188.626862 
	C162.285538,188.822693 163.937073,189.577240 164.995575,192.866028 
	C167.530624,200.742508 170.504639,208.477722 173.452591,216.691040 
	C170.968918,216.691040 168.912262,216.691040 166.421738,216.691040 
	C164.994263,209.131134 158.932068,212.731110 154.472733,212.063141 
	C152.009949,217.212051 152.009949,217.212051 145.257034,216.723389 
	C147.856293,209.503525 150.406113,202.421021 153.058899,194.955566 
M161.959824,204.010345 
	C161.205704,201.849854 160.451584,199.689362 159.350052,196.533554 
	C158.034256,200.362625 157.004822,203.358337 155.975403,206.354050 
	C156.292023,206.772720 156.608643,207.191406 156.925262,207.610077 
	C158.661026,206.681122 160.396774,205.752167 161.959824,204.010345 
z"/>
<path fill="#F33030" opacity="1.000000" stroke="none" 
	d="
M111.987152,40.307297 
	C112.503204,39.985802 112.948425,39.990906 113.727371,40.008942 
	C114.762444,42.847397 114.762444,42.847397 108.531525,44.847206 
	C109.507744,45.048466 110.098038,45.280193 110.686012,45.274448 
	C116.921654,45.213558 122.616135,49.253544 125.044357,55.342697 
	C125.377502,56.178139 126.260315,56.861225 127.017868,57.448032 
	C129.274582,59.196121 130.183533,60.908180 127.249794,62.865250 
	C126.808075,63.159912 126.157036,63.690098 126.188614,64.061539 
	C126.581871,68.687218 124.141701,69.001160 120.316132,67.890816 
	C119.983818,67.963615 120.037674,67.982414 120.033798,67.638367 
	C118.310555,66.169472 116.591187,65.044624 114.919258,63.950817 
	C116.208145,62.460781 117.675194,60.764786 118.663078,59.622726 
	C117.290398,58.504906 115.897636,57.921478 115.848785,57.241505 
	C115.533752,52.856037 115.539253,52.806469 110.971474,55.006912 
	C110.599281,55.011616 110.227089,55.016315 109.416138,54.676041 
	C107.678772,51.551235 106.380165,48.771404 105.081566,45.991570 
	C105.090927,43.941833 105.100288,41.892097 105.724380,39.930378 
	C106.339104,40.018394 106.814575,40.075424 106.814575,40.075424 
	C106.814575,40.075424 106.910988,40.015804 107.045700,40.221741 
	C107.335472,40.629395 107.515396,40.805752 107.720184,40.956741 
	C109.118896,40.849129 110.517601,40.741512 111.987152,40.307297 
z"/>
<path fill="#D4D4D4" opacity="1.000000" stroke="none" 
	d="
M236.147141,217.010651 
	C234.358246,217.010635 233.048462,217.010635 231.438873,217.010635 
	C231.438873,207.614426 231.438873,198.544724 231.438873,189.131836 
	C233.528259,189.131836 235.572418,189.131836 237.995880,189.131836 
	C237.995880,196.470581 237.995880,203.749237 237.995880,211.563507 
	C241.080124,211.563507 243.809998,211.563507 246.813126,211.563507 
	C246.951492,213.511353 247.053192,214.943207 247.200058,217.010666 
	C243.512955,217.010666 240.069595,217.010666 236.147141,217.010651 
z"/>
<path fill="#C6C6C6" opacity="1.000000" stroke="none" 
	d="
M195.970230,244.967590 
	C195.015656,244.148300 194.113556,243.300232 194.087952,242.426468 
	C193.947128,237.621475 194.020706,232.810211 194.020706,226.633926 
	C200.658630,229.511551 199.686295,236.538651 203.655579,240.223221 
	C205.225998,236.686478 206.649521,233.188568 208.349442,229.830597 
	C208.857605,228.826752 210.138641,228.214188 211.065598,227.422363 
	C211.605576,228.458923 212.562515,229.476303 212.611298,230.535477 
	C212.794907,234.522720 212.791443,238.528763 212.600937,242.515488 
	C212.556259,243.450211 211.504013,244.336761 209.836960,244.734039 
	C209.688431,241.981232 209.539902,239.228409 209.391373,236.475601 
	C209.109116,236.367477 208.826859,236.259354 208.544586,236.151230 
	C207.053757,239.206726 205.562927,242.262222 203.429062,246.635620 
	C201.151566,242.122574 199.511414,238.872498 197.498016,234.882797 
	C197.088028,238.729050 196.757675,241.827988 195.970230,244.967590 
z"/>
<path fill="#C2C2C2" opacity="1.000000" stroke="none" 
	d="
M120.474121,236.457214 
	C121.503525,239.317978 122.361069,241.822876 123.815262,246.070587 
	C118.066925,241.819168 113.048683,238.553345 108.275833,246.848587 
	C108.101318,246.077942 107.926796,245.307281 107.752274,244.536621 
	C109.529442,239.451385 111.230728,234.337051 113.158195,229.309448 
	C113.480827,228.467896 114.812553,227.469421 115.627090,227.512222 
	C116.452492,227.555603 117.531944,228.654678 117.941147,229.547531 
	C118.905174,231.651031 119.536407,233.907043 120.474121,236.457214 
z"/>
<path fill="#C3C3C3" opacity="1.000000" stroke="none" 
	d="
M84.440659,234.816360 
	C84.917427,236.698654 85.465302,238.420090 86.423119,239.870895 
	C87.488815,241.485077 88.927834,242.852798 90.464256,244.628159 
	C84.876656,246.096268 84.507141,240.170395 80.661926,238.983231 
	C80.433273,240.909668 80.213066,242.764984 79.948341,244.995316 
	C79.051994,244.737885 77.520287,244.517365 77.514854,244.264160 
	C77.393967,238.621918 76.257675,232.865799 78.131729,227.393784 
	C78.629097,227.369324 79.126465,227.344864 79.623833,227.320419 
	C79.998619,229.258850 80.373405,231.197266 80.828362,233.550323 
	C83.671860,231.197418 86.276131,229.042450 88.880394,226.887497 
	C89.251205,227.318268 89.622017,227.749023 89.992821,228.179794 
	C88.226082,230.298569 86.459335,232.417358 84.440659,234.816360 
z"/>
<path fill="#CBCBCB" opacity="1.000000" stroke="none" 
	d="
M148.162354,227.608429 
	C154.479935,230.004105 154.954712,233.299423 149.977921,238.494690 
	C151.033752,240.450729 152.115067,242.454010 153.307587,244.663315 
	C147.431168,246.106644 148.932556,238.561951 144.354095,238.023987 
	C144.170258,240.263504 143.992950,242.423401 143.688019,246.138168 
	C142.320343,244.397385 141.154602,243.600296 141.124802,242.762772 
	C140.949326,237.832520 141.038483,232.892853 141.038483,227.528824 
	C143.566559,227.528824 145.668411,227.528824 148.162354,227.608429 
M144.029495,234.137802 
	C145.627792,234.482468 147.242279,235.096909 148.814224,235.002563 
	C149.268631,234.975296 150.249863,232.378433 149.852219,231.894928 
	C149.056717,230.927597 147.368835,230.007843 146.252319,230.206863 
	C145.351120,230.367508 144.747864,232.199692 144.029495,234.137802 
z"/>
<path fill="#441D1D" opacity="1.000000" stroke="none" 
	d="
M104.729752,45.986313 
	C106.380165,48.771404 107.678772,51.551235 109.136993,54.670521 
	C108.695808,56.183502 108.094994,57.357037 107.193367,59.118107 
	C105.527061,56.530781 104.104912,54.322578 102.606865,51.996513 
	C100.477226,54.704063 98.271637,57.508183 96.255699,60.071178 
	C95.651253,56.216900 95.175835,53.185337 94.344254,50.058479 
	C94.472504,49.366619 94.956902,48.770058 95.774719,48.374744 
	C98.607864,50.965981 100.189095,50.742519 100.885262,47.900879 
	C102.049484,47.260933 103.213707,46.620991 104.729752,45.986313 
z"/>
<path fill="#BFBFBF" opacity="1.000000" stroke="none" 
	d="
M172.184418,230.660156 
	C172.578232,229.228104 172.971024,228.220779 173.363815,227.213470 
	C173.813553,227.305588 174.263290,227.397705 174.713028,227.489822 
	C174.713028,233.232620 174.713028,238.975403 174.713028,244.718201 
	C174.258545,244.811096 173.804077,244.903992 173.349594,244.996887 
	C170.883453,240.750275 172.780807,235.682983 172.184418,230.660156 
z"/>
<path fill="#EB2F2F" opacity="1.000000" stroke="none" 
	d="
M172.709381,64.048843 
	C170.981842,65.246315 169.006897,66.975533 167.503098,66.633453 
	C166.033829,66.299225 165.045425,63.851093 163.845932,62.330917 
	C164.177155,61.827377 164.508362,61.323837 164.839584,60.820301 
	C167.449112,61.771507 170.058655,62.722717 172.709381,64.048843 
z"/>
<path fill="#451D1D" opacity="1.000000" stroke="none" 
	d="
M100.573090,47.940453 
	C100.189095,50.742519 98.607864,50.965981 96.048309,48.261490 
	C97.412628,47.958000 98.836769,47.969013 100.573090,47.940453 
z"/>
<path fill="#F53030" opacity="1.000000" stroke="none" 
	d="
M127.722893,26.159470 
	C127.558258,27.718206 127.109772,29.239454 126.330643,30.880352 
	C126.000000,31.000000 125.998169,30.997299 125.998169,30.997299 
	C126.034111,29.776005 126.070045,28.554708 126.003067,27.039339 
	C126.413116,26.537504 126.926079,26.329742 127.722893,26.159470 
z"/>
<path fill="#EF2F2F" opacity="1.000000" stroke="none" 
	d="
M106.703476,39.942001 
	C106.814575,40.075424 106.339104,40.018394 106.101990,39.982494 
	C106.061234,39.788582 106.257576,39.630569 106.453918,39.472565 
	C106.424103,39.488087 106.394279,39.503609 106.364449,39.519127 
	C106.440430,39.615608 106.516403,39.712093 106.703476,39.942001 
z"/>
<path fill="#EF2F2F" opacity="1.000000" stroke="none" 
	d="
M107.749374,40.721493 
	C107.515396,40.805752 107.335472,40.629395 107.074615,40.270485 
	C107.328850,40.041958 107.598763,40.166275 107.749374,40.721493 
z"/>
<path fill="#1A1A1A" opacity="1.000000" stroke="none" 
	d="
M111.308289,55.178062 
	C115.539253,52.806469 115.533752,52.856037 115.848785,57.241505 
	C115.897636,57.921478 117.290398,58.504906 118.663078,59.622726 
	C117.675194,60.764786 116.208145,62.460781 114.919258,63.950817 
	C116.591187,65.044624 118.310555,66.169472 120.025482,67.665863 
	C118.197220,68.331139 116.373405,68.624855 114.512558,68.924530 
	C113.854271,74.831871 113.206924,80.641068 112.569778,86.358719 
	C111.983383,86.522270 111.681190,86.606552 111.378990,86.690834 
	C110.316414,81.849358 106.276093,80.420441 102.477211,78.381195 
	C100.152771,77.133446 98.453659,74.162796 100.720810,71.695908 
	C102.664841,69.580597 103.046570,64.329002 108.230789,66.842438 
	C108.951874,67.192032 110.136223,66.586105 110.443428,66.534294 
	C110.868073,62.581776 111.256592,58.965492 111.308289,55.178062 
z"/>
<path fill="#F53030" opacity="1.000000" stroke="none" 
	d="
M126.000900,31.000992 
	C125.439621,31.331173 124.877441,31.660362 124.315262,31.989552 
	C124.125771,31.598383 123.936279,31.207212 123.746796,30.816040 
	C124.336510,30.807753 124.926216,30.799465 125.757050,30.894239 
	C125.998169,30.997299 126.000000,31.000000 126.000900,31.000992 
z"/>
<path fill="#242424" opacity="1.000000" stroke="none" 
	d="
M190.285431,200.414551 
	C188.046387,200.999863 186.129883,201.277237 183.752838,201.621277 
	C183.752838,199.174713 183.752838,197.293091 183.752838,195.392288 
	C189.816391,193.697540 191.442947,194.806992 190.285431,200.414551 
z"/>
<path fill="#323232" opacity="1.000000" stroke="none" 
	d="
M57.729370,206.871017 
	C56.215359,206.773239 55.116596,206.670944 53.529182,206.523178 
	C54.526161,203.343582 55.420441,200.491531 56.716785,196.357193 
	C58.036602,200.103943 59.017715,202.640778 59.747578,205.247925 
	C59.848808,205.609543 58.709591,206.318405 57.729370,206.871017 
z"/>
<path fill="#2E2E2E" opacity="1.000000" stroke="none" 
	d="
M162.046173,204.416779 
	C160.396774,205.752167 158.661026,206.681122 156.925262,207.610077 
	C156.608643,207.191406 156.292023,206.772720 155.975403,206.354050 
	C157.004822,203.358337 158.034256,200.362625 159.350052,196.533554 
	C160.451584,199.689362 161.205704,201.849854 162.046173,204.416779 
z"/>
<path fill="#232323" opacity="1.000000" stroke="none" 
	d="
M144.020966,233.714050 
	C144.747864,232.199692 145.351120,230.367508 146.252319,230.206863 
	C147.368835,230.007843 149.056717,230.927597 149.852219,231.894928 
	C150.249863,232.378433 149.268631,234.975296 148.814224,235.002563 
	C147.242279,235.096909 145.627792,234.482468 144.020966,233.714050 
z"/>
</svg>